<?xml version="1.0" standalone="no"?>
<!DOCTYPE svg PUBLIC "-//W3C//DTD SVG 20010904//EN"
 "http://www.w3.org/TR/2001/REC-SVG-20010904/DTD/svg10.dtd">
<svg version="1.0" xmlns="http://www.w3.org/2000/svg"
 width="144.000000pt" height="144.000000pt" viewBox="0 0 144.000000 144.000000"
 preserveAspectRatio="xMidYMid meet">
<metadata>
Created by potrace 1.14, written by Peter Selinger 2001-2017
</metadata>
<g transform="translate(0.000000,144.000000) scale(0.100000,-0.100000)"
fill="#000000" stroke="none">
<path d="M465 1192 c-128 -44 -246 -155 -314 -294 -72 -146 -66 -246 18 -330
60 -60 138 -86 219 -71 l54 10 -5 -54 -6 -55 52 -23 c82 -37 104 -40 112 -16
6 19 11 16 56 -34 140 -152 367 -168 500 -35 75 75 86 157 33 236 -29 42 -29
44 -7 44 29 0 101 49 121 82 36 58 38 101 8 163 -48 97 -200 183 -354 201
l-58 6 -33 -61 c-18 -34 -33 -61 -35 -61 -1 0 -1 25 2 55 14 172 -181 300
-363 237z m146 -133 c10 -20 4 -69 -16 -121 -6 -16 72 -53 162 -77 l43 -12
-35 -69 -34 -68 -48 23 c-72 34 -145 57 -154 48 -5 -5 -17 -33 -27 -63 -15
-44 -26 -59 -54 -74 -31 -17 -39 -18 -67 -6 -61 25 -60 82 1 205 62 123 157
235 200 235 10 0 22 -9 29 -21z m504 -260 c8 -23 -18 -72 -51 -98 -27 -21
-109 -31 -102 -12 2 5 26 45 53 89 l50 80 22 -20 c13 -12 25 -29 28 -39z
m-179 -259 c59 -29 72 -64 45 -119 -35 -67 -126 -95 -166 -50 -19 20 -18 22
25 104 25 47 47 85 49 85 3 0 24 -9 47 -20z"/>
</g>
</svg>
